<?xml version="1.0" standalone="no"?>
<!DOCTYPE svg PUBLIC "-//W3C//DTD SVG 20010904//EN"
 "http://www.w3.org/TR/2001/REC-SVG-20010904/DTD/svg10.dtd">
<svg version="1.0" xmlns="http://www.w3.org/2000/svg"
 width="984.000000pt" height="984.000000pt" viewBox="0 0 984.000000 984.000000"
 preserveAspectRatio="xMidYMid meet">
<metadata>
Created by potrace 1.14, written by Peter Selinger 2001-2017
</metadata>
<g transform="translate(0.000000,984.000000) scale(0.100000,-0.100000)"
fill="#000000" stroke="none">
<path d="M6910 9825 c-61 -24 -280 -102 -293 -104 -4 0 -24 -10 -44 -21 -21
-11 -41 -20 -46 -20 -5 0 -34 -12 -65 -26 -31 -14 -73 -33 -92 -41 -67 -29
-286 -140 -328 -167 -23 -14 -46 -26 -52 -26 -5 0 -10 -5 -10 -12 0 -6 -3 -9
-6 -5 -3 3 -11 2 -18 -4 -6 -5 -40 -28 -76 -51 -58 -38 -84 -57 -184 -131 -27
-20 -52 -42 -116 -97 -77 -66 -209 -203 -270 -279 -19 -24 -40 -48 -45 -55 -6
-6 -28 -36 -50 -66 -22 -30 -43 -56 -47 -58 -5 -2 -8 -8 -8 -13 0 -6 -5 -15
-11 -22 -36 -41 -254 -402 -247 -409 2 -2 -6 -16 -18 -33 -11 -16 -47 -84 -80
-150 -32 -66 -63 -123 -69 -127 -5 -4 -7 -8 -3 -8 4 0 -13 -39 -36 -88 -41
-82 -74 -152 -96 -204 -6 -13 -14 -30 -19 -38 -8 -14 -32 -67 -36 -80 -1 -3
-18 -41 -39 -85 -62 -133 -126 -272 -206 -450 -12 -27 -34 -75 -48 -105 -14
-30 -26 -57 -27 -60 -12 -37 -50 -110 -57 -110 -9 0 -6 51 7 120 8 43 16 94
21 127 2 18 8 52 14 75 6 24 13 59 16 78 3 19 6 42 8 50 1 9 5 21 10 28 4 6 5
12 2 12 -2 0 13 66 35 148 22 81 42 158 45 172 3 14 12 45 20 70 9 25 17 52
19 61 2 9 10 38 19 63 9 26 16 53 16 61 0 8 5 15 12 15 6 0 9 3 5 6 -4 5 54
185 80 244 3 8 7 17 7 20 4 16 51 127 59 138 5 6 7 12 3 12 -4 0 0 12 7 28 8
15 18 37 21 50 7 21 6 21 -21 11 -15 -5 -41 -16 -58 -24 -16 -7 -70 -31 -120
-51 -130 -55 -430 -210 -466 -240 -8 -8 -19 -14 -23 -14 -4 0 -34 -18 -66 -40
-32 -22 -62 -40 -65 -40 -3 0 -11 -5 -18 -10 -12 -11 -176 -126 -205 -145 -8
-5 -23 -17 -33 -25 -10 -8 -24 -19 -31 -25 -23 -18 -113 -89 -124 -100 -6 -5
-40 -35 -75 -65 -35 -30 -82 -74 -106 -98 -24 -24 -43 -41 -43 -38 0 2 -28
-25 -62 -62 -35 -36 -78 -80 -95 -98 -18 -18 -33 -37 -33 -43 0 -6 -7 -11 -15
-11 -8 0 -15 -3 -15 -8 0 -4 -24 -35 -52 -68 -104 -120 -264 -333 -342 -454
-27 -41 -57 -87 -67 -102 -11 -15 -19 -32 -19 -38 0 -5 -4 -10 -10 -10 -5 0
-10 -7 -10 -15 0 -8 -3 -15 -8 -15 -4 0 -13 -15 -21 -32 -8 -18 -17 -35 -20
-38 -4 -3 -18 -27 -31 -55 -14 -27 -31 -56 -37 -63 -7 -7 -13 -17 -13 -22 0
-4 -27 -59 -60 -121 -34 -63 -62 -121 -63 -129 -2 -8 -17 -44 -34 -80 -17 -36
-38 -81 -46 -100 -8 -19 -24 -55 -35 -80 -24 -55 -37 -93 -34 -102 1 -5 -3 -8
-10 -8 -6 0 -9 -3 -6 -6 3 -3 -5 -33 -19 -67 -14 -34 -27 -68 -29 -77 -2 -8
-20 -62 -40 -120 -20 -58 -37 -112 -39 -120 -2 -8 -10 -36 -19 -61 -9 -25 -18
-56 -20 -70 -3 -13 -5 -24 -6 -24 -1 0 -3 -7 -5 -15 -2 -8 -14 -51 -26 -95
-11 -44 -23 -88 -25 -97 -2 -10 -6 -27 -9 -38 -3 -11 -7 -28 -9 -37 -7 -30
-47 -214 -52 -237 -2 -11 -8 -43 -14 -71 -5 -27 -12 -65 -15 -82 -3 -18 -7
-48 -10 -65 -3 -18 -8 -46 -12 -63 -4 -16 -8 -43 -9 -60 -1 -16 -3 -31 -4 -32
-1 -2 -4 -16 -5 -33 -1 -16 -4 -31 -5 -32 -1 -2 -3 -14 -5 -28 -11 -104 -17
-149 -21 -175 -4 -16 -7 -48 -9 -70 -1 -22 -6 -83 -10 -135 -4 -52 -8 -101 -8
-107 0 -7 -4 -13 -7 -13 -10 0 -12 51 -12 315 0 210 4 308 17 435 2 25 7 74
11 110 6 68 9 93 18 150 3 19 11 73 17 120 6 47 13 94 15 105 2 11 6 38 9 60
3 22 7 47 10 55 3 8 7 31 9 50 3 19 8 46 11 60 3 14 7 39 10 55 2 17 6 39 8
50 3 11 15 67 27 125 12 58 33 152 46 210 14 58 27 114 28 125 2 11 6 27 9 35
4 8 9 26 11 40 3 14 8 39 12 55 3 17 7 36 7 43 0 6 5 12 11 12 6 0 6 4 -1 11
-8 8 -21 0 -50 -32 -21 -23 -59 -64 -85 -90 -27 -27 -48 -51 -48 -54 0 -3 -10
-16 -23 -28 -24 -23 -179 -213 -210 -257 -9 -14 -38 -56 -64 -95 -26 -38 -51
-71 -55 -73 -5 -2 -8 -7 -8 -12 0 -4 -19 -39 -42 -76 -71 -118 -197 -382 -213
-449 -1 -5 -5 -17 -8 -25 -37 -90 -97 -334 -112 -455 -2 -16 -7 -54 -10 -84
-4 -29 -8 -88 -10 -130 -2 -42 -4 -76 -5 -76 -1 0 -3 -12 -4 -27 -1 -16 3 -28
8 -28 6 0 6 -4 -1 -11 -6 -6 -8 -23 -3 -43 4 -19 3 -41 -2 -50 -5 -9 -5 -16
-1 -16 4 0 9 -33 9 -73 2 -68 6 -112 19 -216 6 -41 5 -43 -11 -30 -9 8 -20 13
-23 13 -3 -1 -17 3 -31 9 -14 6 -27 11 -30 12 -3 0 -25 10 -50 22 -129 59
-141 63 -136 45 5 -19 27 -102 31 -117 8 -37 18 -72 22 -85 4 -8 7 -23 8 -32
2 -10 3 -19 5 -20 1 -2 3 -10 5 -18 2 -8 9 -33 15 -55 6 -22 13 -49 15 -60 2
-11 4 -20 5 -20 1 0 3 -7 5 -15 2 -8 10 -40 18 -70 9 -30 14 -56 12 -58 -3 -3
-172 75 -330 153 -49 24 -90 43 -92 41 -4 -3 145 -296 159 -313 6 -7 7 -13 2
-13 -5 0 -3 -4 4 -8 7 -5 15 -19 17 -32 2 -13 8 -26 13 -29 5 -3 37 -62 71
-131 35 -69 67 -129 72 -134 5 -6 9 -18 9 -28 0 -10 7 -21 15 -24 8 -4 15 -12
15 -19 0 -11 17 -45 112 -225 l24 -45 -72 -165 c-60 -138 -138 -310 -267 -590
-12 -25 -22 -47 -22 -50 -2 -8 -29 -69 -106 -238 -16 -34 -29 -64 -29 -67 0
-5 -8 -23 -50 -120 -8 -16 -14 -32 -15 -35 -4 -18 -19 -60 -31 -85 -24 -53
-103 -285 -97 -285 3 0 1 -6 -4 -12 -6 -7 -18 -44 -28 -83 -9 -38 -20 -77 -23
-85 -3 -8 -6 -19 -8 -25 -9 -37 -30 -136 -39 -185 -2 -14 -7 -37 -11 -53 l-6
-27 69 5 c37 3 91 8 118 10 66 7 187 17 203 18 17 1 39 34 46 68 2 15 9 35 14
45 6 11 27 69 47 129 43 127 112 319 127 355 6 14 12 31 14 38 1 7 14 42 28
78 14 35 26 71 26 79 0 8 4 15 8 15 5 0 9 6 9 13 0 6 17 55 38 107 20 52 38
100 39 105 2 6 9 24 16 40 7 17 14 32 15 35 2 12 90 232 126 315 20 50 56 135
79 190 23 55 54 125 68 155 14 30 26 57 27 60 4 12 26 61 65 145 23 50 55 117
70 151 37 79 186 378 237 474 86 161 128 238 175 319 26 46 48 88 48 92 0 5 5
9 10 9 6 0 10 9 10 19 0 11 3 21 8 23 4 2 52 77 106 168 55 91 121 197 148
237 26 40 48 74 48 77 0 3 7 14 15 23 8 10 15 22 14 27 0 5 3 12 8 15 5 3 51
69 103 146 51 77 97 142 102 143 4 2 8 10 8 18 0 8 5 14 10 14 6 0 10 5 10 10
0 6 5 16 10 23 6 7 29 37 51 67 21 30 45 63 52 72 6 9 30 42 52 73 22 31 66
90 98 131 31 40 57 78 57 83 0 5 3 11 8 13 4 2 45 53 92 113 46 61 92 119 102
130 10 11 49 61 88 110 75 95 125 157 150 185 8 9 35 41 59 71 48 58 54 65
103 121 18 20 44 51 58 68 14 18 32 40 41 49 9 9 38 41 64 71 69 79 199 221
278 302 37 39 67 75 67 79 0 5 7 9 15 9 8 0 15 4 15 8 0 18 447 452 616 599
11 10 47 41 80 70 81 71 102 89 153 131 24 21 53 45 65 55 11 10 36 31 55 45
18 15 41 34 51 42 9 8 32 26 50 40 19 14 62 48 96 75 55 45 270 204 429 318
33 24 68 46 78 50 9 3 17 11 17 17 0 5 4 10 9 10 9 0 99 57 111 69 9 10 45 31
63 37 9 4 17 9 17 13 0 4 19 18 43 31 23 13 44 26 47 30 5 7 158 99 190 115
11 5 20 13 20 17 0 5 4 8 9 8 5 0 39 18 75 40 36 22 69 40 73 40 3 0 14 6 22
14 9 7 41 27 71 43 125 68 176 97 193 111 9 8 17 12 17 7 0 -4 10 -1 23 7 12
8 51 31 87 50 36 19 91 49 123 67 32 17 65 31 73 31 8 0 14 4 14 8 0 9 140 77
153 74 4 -1 7 2 7 7 0 5 17 16 38 24 20 8 72 32 114 52 43 20 80 36 83 36 3
-1 20 8 39 19 32 17 369 160 379 160 3 0 22 8 43 17 22 9 41 17 44 17 7 1 101
36 125 46 26 12 209 71 232 75 10 2 18 4 18 5 0 1 7 3 15 5 8 2 45 12 82 23
37 11 70 17 73 14 3 -3 5 -1 5 5 0 5 6 10 13 11 6 0 89 17 182 36 94 20 190
39 215 42 25 3 55 7 67 9 54 9 185 19 255 19 43 1 78 5 78 9 0 4 9 3 20 -3 11
-6 20 -7 20 -2 0 10 54 7 71 -3 5 -4 9 -1 9 5 0 6 5 8 12 4 6 -4 44 -8 85 -9
40 -1 76 -5 80 -8 3 -4 0 -7 -8 -8 -14 -1 -24 -2 -69 -13 -14 -3 -43 -10 -65
-14 -55 -12 -317 -82 -335 -89 -8 -3 -22 -7 -30 -7 -8 -1 -21 -5 -27 -9 -7 -5
-13 -6 -13 -2 0 3 -8 1 -18 -4 -11 -6 -30 -12 -44 -15 -13 -2 -63 -16 -109
-31 -46 -15 -88 -28 -94 -29 -17 -4 -329 -106 -350 -115 -11 -5 -49 -19 -85
-31 -36 -12 -72 -25 -80 -28 -8 -3 -19 -6 -25 -8 -5 -1 -73 -28 -150 -59 -77
-31 -144 -58 -150 -59 -5 -1 -28 -10 -50 -20 -22 -10 -60 -26 -85 -36 -60 -24
-161 -68 -182 -80 -10 -6 -24 -10 -32 -10 -7 0 -19 -7 -26 -15 -7 -8 -18 -15
-26 -15 -7 0 -83 -34 -168 -75 -86 -42 -158 -75 -161 -75 -3 0 -13 -6 -21 -15
-9 -8 -20 -13 -25 -10 -5 4 -9 1 -9 -5 0 -6 -4 -9 -9 -5 -6 3 -14 -3 -20 -12
-6 -10 -11 -15 -11 -11 0 5 -33 -9 -72 -31 -179 -95 -214 -114 -225 -123 -7
-6 -13 -7 -13 -2 0 5 -4 4 -8 -2 -4 -6 -32 -24 -62 -41 -100 -55 -285 -166
-291 -175 -3 -6 -10 -10 -15 -10 -10 1 -169 -99 -298 -185 -43 -29 -82 -53
-86 -53 -5 0 -10 -3 -12 -7 -1 -5 -32 -28 -68 -53 -36 -24 -66 -48 -68 -52 -2
-4 -8 -8 -13 -8 -7 0 -186 -125 -199 -140 -3 -3 -30 -23 -60 -45 -30 -22 -57
-42 -60 -45 -3 -3 -41 -32 -85 -65 -44 -33 -82 -63 -85 -66 -3 -4 -40 -34 -82
-67 -43 -33 -74 -62 -71 -66 3 -3 1 -6 -5 -6 -11 0 -22 -7 -75 -54 -12 -10
-44 -37 -71 -60 -274 -232 -676 -618 -902 -865 -33 -35 -79 -85 -104 -112 -25
-26 -70 -76 -100 -110 -30 -34 -67 -76 -83 -93 -48 -55 -62 -70 -112 -131 -28
-33 -53 -62 -56 -65 -3 -3 -54 -66 -114 -140 -59 -74 -115 -141 -124 -148 -8
-6 -11 -12 -6 -12 5 0 2 -6 -6 -12 -9 -7 -38 -42 -65 -78 -27 -35 -54 -71 -61
-80 -7 -8 -26 -33 -42 -55 -17 -22 -34 -45 -38 -50 -5 -6 -28 -37 -53 -70 -25
-33 -48 -61 -52 -63 -5 -2 -8 -8 -8 -12 0 -5 -21 -38 -47 -73 -27 -36 -54 -73
-61 -83 -7 -11 -53 -77 -102 -147 -50 -70 -90 -132 -90 -137 0 -6 -5 -10 -10
-10 -6 0 -16 -12 -23 -27 -6 -16 -14 -30 -18 -33 -11 -10 -189 -283 -189 -291
0 -5 -5 -9 -12 -9 -6 0 -9 -3 -5 -6 3 -4 1 -12 -6 -20 -23 -26 -33 -39 -40
-54 -4 -8 -15 -27 -25 -41 -15 -23 -49 -79 -95 -154 -7 -11 -16 -23 -22 -27
-7 -5 -7 -8 0 -8 6 0 6 -3 0 -8 -10 -7 -49 -63 -50 -72 -1 -7 -42 -72 -52 -85
-5 -5 -12 -17 -16 -25 -4 -8 -18 -33 -32 -55 -14 -22 -28 -47 -32 -55 -3 -8
-21 -38 -38 -65 -28 -44 -56 -92 -102 -175 -8 -14 -28 -47 -44 -75 -17 -27
-33 -58 -36 -67 -3 -10 -10 -18 -15 -18 -5 0 -6 -4 -3 -10 3 -5 2 -10 -2 -10
-5 0 -14 -12 -21 -28 -6 -15 -30 -58 -52 -97 -22 -38 -57 -101 -76 -140 -20
-38 -40 -72 -44 -75 -11 -7 -23 -51 -13 -48 7 1 56 -6 118 -18 11 -3 36 -7 55
-9 19 -3 46 -8 60 -12 14 -3 34 -7 45 -8 11 -2 38 -7 60 -13 22 -5 48 -8 58
-6 9 1 17 -1 17 -5 0 -4 10 -7 23 -8 21 -1 78 -10 121 -19 11 -3 35 -7 51 -10
17 -2 41 -7 55 -10 14 -3 39 -8 55 -10 17 -3 50 -9 75 -14 25 -5 68 -12 95
-15 l50 -6 -60 28 c-33 15 -61 31 -63 35 -2 5 -9 8 -15 8 -6 0 -60 24 -119 52
-101 50 -138 78 -100 76 16 -1 67 6 122 17 14 3 45 8 70 11 78 10 88 12 117
18 15 3 48 8 73 11 25 4 68 11 95 17 28 5 57 10 65 10 8 0 35 4 60 8 25 5 65
11 90 15 25 3 52 8 60 10 8 2 40 7 70 10 30 4 57 8 60 10 3 2 28 6 55 9 28 4
59 8 70 10 33 6 88 15 125 21 19 3 59 10 89 15 29 5 57 7 62 4 5 -3 9 -2 9 3
0 4 10 9 23 10 20 2 55 9 67 13 3 1 -8 6 -25 10 -16 5 -46 13 -65 19 -67 19
-195 51 -225 56 -16 3 -43 9 -60 12 -16 3 -40 7 -52 7 -13 1 -23 5 -23 9 0 5
-3 6 -8 3 -4 -2 -28 0 -54 4 -25 5 -66 11 -89 14 -24 3 -55 8 -69 10 -14 3
-59 10 -100 16 -41 6 -86 14 -100 17 -14 3 -37 6 -51 8 -14 1 -36 8 -48 14
-11 7 -21 9 -21 6 0 -18 -184 72 -202 99 -13 19 -9 21 55 23 135 4 217 10 223
16 4 3 15 2 25 -4 11 -5 19 -6 19 -2 0 4 19 9 43 10 23 1 74 4 112 8 39 3 90
8 115 9 46 4 109 11 170 20 19 3 60 8 90 11 30 3 66 7 80 10 14 2 45 6 69 9
49 7 51 7 221 37 69 12 132 22 140 24 15 2 101 18 110 20 6 2 79 17 100 20 8
2 57 13 108 25 51 12 101 23 110 25 9 2 17 4 17 6 0 1 9 3 20 4 35 5 339 94
358 105 10 6 22 8 27 5 5 -3 11 -1 15 5 3 5 13 10 21 10 20 0 269 91 364 133
24 11 50 20 57 21 7 1 19 8 25 14 7 7 18 12 25 12 16 0 298 136 336 162 15 11
27 17 27 14 0 -3 47 24 105 59 58 36 110 65 115 65 4 0 10 3 12 8 2 4 43 33
91 66 48 32 86 60 85 62 -3 3 -126 21 -263 40 -22 3 -62 10 -88 15 -26 5 -51
8 -55 8 -4 -1 -9 0 -12 1 -9 3 -44 9 -85 15 -22 2 -55 9 -72 14 -18 5 -33 8
-33 6 0 -3 -11 0 -25 5 -14 5 -37 12 -50 15 -14 3 -36 7 -49 10 -14 3 -46 15
-73 26 -47 21 -47 21 -23 31 14 5 30 11 35 12 6 2 21 7 35 13 14 6 43 16 65
24 22 8 51 19 64 26 14 7 28 10 33 7 4 -3 8 0 8 5 0 6 6 11 14 11 18 0 198 77
336 143 58 28 107 51 110 52 13 5 83 40 155 78 141 75 170 92 176 100 3 5 8 7
10 6 5 -3 0 -6 229 136 96 60 177 112 178 117 2 4 8 8 13 8 8 0 97 57 109 70
3 3 31 22 62 43 31 21 63 43 70 50 7 6 36 28 63 47 28 19 52 38 53 42 2 4 10
8 17 8 7 0 15 3 17 8 2 4 57 48 123 97 66 50 122 93 123 98 2 4 10 7 17 7 7 0
15 4 17 9 2 5 41 39 88 75 138 108 142 111 154 121 6 6 29 24 51 40 22 17 45
35 50 41 6 6 30 26 55 45 25 18 50 38 56 44 6 5 26 21 44 35 59 44 105 81 110
89 3 4 21 18 40 31 19 13 37 27 40 30 3 3 23 19 45 35 22 17 42 32 45 35 3 3
39 31 80 62 41 32 84 64 95 72 11 8 43 33 70 54 28 21 59 44 70 50 30 17 3 15
-106 -7 -88 -18 -129 -25 -204 -37 -16 -3 -65 -12 -108 -20 -44 -7 -83 -11
-88 -8 -5 3 -9 2 -9 -3 0 -7 -52 -15 -122 -17 -16 -1 -28 -3 -28 -6 0 -3 -8
-6 -17 -7 -20 0 -107 -10 -168 -18 -49 -6 -194 -20 -312 -28 -34 -3 -66 -8
-72 -11 -5 -4 -12 -2 -16 4 -4 6 -11 7 -17 4 -17 -11 -183 -17 -448 -17 -208
0 -445 7 -445 13 0 1 -27 3 -60 5 -33 2 -76 6 -95 9 -19 3 -57 8 -85 12 -27 3
-59 8 -70 11 -11 3 -31 6 -45 8 -14 2 -27 4 -30 5 -3 1 -9 3 -15 4 -76 12
-256 71 -313 103 -64 35 -69 41 -30 37 126 -13 345 -19 673 -19 377 0 550 7
755 30 30 3 73 8 95 10 22 2 56 6 76 10 20 3 51 8 70 10 63 8 114 15 139 20
14 3 39 8 55 10 34 6 95 17 110 21 6 1 26 5 45 8 19 4 96 23 170 42 74 19 142
37 150 39 8 2 27 8 43 14 15 6 27 8 27 5 0 -2 13 2 30 11 16 8 31 15 32 15 3
-1 6 -1 93 28 63 21 91 32 161 63 23 10 54 21 68 25 14 3 26 11 26 17 0 6 3 8
6 4 3 -3 29 7 57 21 29 15 54 27 57 28 13 3 46 18 50 23 3 3 23 15 45 26 50
25 208 116 215 124 3 3 17 12 33 20 15 8 27 18 27 23 0 4 4 8 10 8 14 0 165
114 255 194 143 126 269 262 385 415 14 18 31 39 38 46 6 8 12 18 12 24 0 6 5
11 10 11 6 0 10 5 10 10 0 6 15 32 33 58 18 26 44 67 58 92 13 25 30 51 37 58
6 7 12 19 12 26 0 8 7 19 15 26 8 7 13 16 10 20 -3 5 1 14 8 22 18 19 77 146
126 273 24 61 49 125 57 143 8 18 14 42 14 52 0 11 5 20 12 20 6 0 9 2 6 5 -3
4 -1 25 4 48 5 23 12 51 14 62 19 83 26 343 11 430 -15 89 -19 109 -29 134 -5
14 -12 37 -14 51 -12 64 -92 216 -169 321 -62 85 -248 269 -272 269 -7 0 -13
4 -13 9 0 16 -283 189 -320 196 -3 0 -27 11 -54 23 -27 12 -54 22 -60 22 -7 0
-16 4 -22 9 -21 19 -334 107 -334 94 0 -3 -6 -1 -13 5 -7 6 -36 12 -65 14 -29
2 -52 5 -52 9 0 3 -10 5 -22 6 -67 3 -146 10 -154 15 -8 4 -289 3 -289 -2 0
-1 -20 -3 -45 -5 -85 -6 -138 -14 -215 -31 -16 -4 -37 -8 -45 -9 -8 -1 -35 -8
-60 -15 -25 -7 -51 -15 -59 -16 -40 -8 -214 -84 -219 -97 -2 -4 -8 -4 -13 -1
-6 3 -18 0 -27 -8 -9 -8 -38 -27 -64 -41 -62 -36 -181 -132 -238 -192 -74 -78
-80 -85 -80 -91 0 -6 -169 -218 -215 -269 -43 -49 -67 -76 -125 -145 -30 -36
-57 -67 -60 -70 -3 -3 -23 -27 -44 -55 -55 -70 -59 -74 -45 -42 7 15 17 27 22
27 6 0 7 3 4 7 -4 3 2 20 12 37 10 17 37 65 59 106 22 41 52 98 67 125 15 28
48 91 74 140 25 50 48 92 51 95 3 3 18 30 33 60 65 128 113 215 120 221 5 3 8
9 8 13 -2 11 51 111 63 118 6 4 8 8 4 8 -4 0 12 33 34 73 23 39 41 78 41 85 0
6 4 12 8 12 3 0 9 9 12 20 3 11 4 20 4 19 -1 0 -18 -6 -37 -14z m-2740 -3165
c0 -5 -5 -10 -11 -10 -5 0 -7 5 -4 10 3 6 8 10 11 10 2 0 4 -4 4 -10z"/>
</g>
</svg>
